<?xml version="1.0" encoding="utf-8"?>
<!-- Generator: Adobe Illustrator 16.0.0, SVG Export Plug-In . SVG Version: 6.00 Build 0)  -->
<!DOCTYPE svg PUBLIC "-//W3C//DTD SVG 1.1//EN" "http://www.w3.org/Graphics/SVG/1.1/DTD/svg11.dtd">
<svg version="1.1" id="Layer_1" xmlns="http://www.w3.org/2000/svg" xmlns:xlink="http://www.w3.org/1999/xlink" x="0px" y="0px"
	 width="60px" height="60px" viewBox="0 0 60 60" enable-background="new 0 0 60 60" xml:space="preserve">
<path d="M50,19.944l10-7.914l-10-7.06H30.986V0.995c0-0.551,0.064-0.996-0.486-0.996s-0.525,0.445-0.525,0.996v3.976H13.013
	c-1.103,0-1.996,0.893-1.996,1.996v10.98c0,1.104,0.893,1.997,1.996,1.997h17.001v4.01H10L0,32.006l10,7.944h20.013v19.048
	c0,0.553-0.072,1.002,0.479,1.002s0.486-0.449,0.486-1.002V39.95h16c1.104,0,1.996-0.894,1.996-1.997V25.951
	c0-1.099-0.893-1.997-1.996-1.997H30.986v-4.01H50z M47.009,24.951c0.552,0,1.001,0.449,1.001,1v12.032
	c0,0.557-0.449,1.001-1.001,1.001H10.142l-8.395-7.022l8.395-7.011H47.009z M13.49,18.971c-0.551,0-1.501-0.449-1.501-1.002V6.937
	c0-0.552,0.45-1.001,1.001-1.001h36.75l8.473,6.051l-8.473,6.984H13.49z M12.99,18.971"/>
</svg>
