<?xml version="1.0" encoding="utf-8"?>
<!-- Generator: Adobe Illustrator 16.0.0, SVG Export Plug-In . SVG Version: 6.00 Build 0)  -->
<!DOCTYPE svg PUBLIC "-//W3C//DTD SVG 1.1//EN" "http://www.w3.org/Graphics/SVG/1.1/DTD/svg11.dtd">
<svg version="1.1" id="Layer_1" xmlns="http://www.w3.org/2000/svg" xmlns:xlink="http://www.w3.org/1999/xlink" x="0px" y="0px"
	 width="18px" height="20px" viewBox="0 0 18 20" enable-background="new 0 0 18 20" xml:space="preserve">
<path d="M17.7,15.086l-2.56-2.705V6.152c0-3.391-2.76-6.15-6.15-6.15c-3.392,0-6.151,2.76-6.151,6.15v6.229l-2.628,2.751
	c-0.174,0.116-0.251,0.331-0.19,0.531s0.245,0.336,0.453,0.336h5.525v1c0,1.651,1.346,2.999,3,2.999c1.653,0,3-1.348,3-2.999v-1
	h5.51c0.007,0.001,0.015,0,0.021,0c0.262,0,0.473-0.212,0.473-0.476C17.997,15.326,17.874,15.152,17.7,15.086z M11.145,16.999
	c0,1.183-0.963,2.144-2.146,2.144c-1.182,0-2.143-0.961-2.143-2.144v-1h4.289V16.999z M1.536,15.055l2.039-2.025
	c0.132-0.088,0.211-0.234,0.211-0.396V6.152c0-2.869,2.334-5.205,5.205-5.205c2.87,0,5.207,2.335,5.207,5.205v6.481
	c0,0.158,0.077,0.307,0.211,0.395l2.036,2.025H1.536V15.055z"/>
</svg>
